<svg xmlns="http://www.w3.org/2000/svg" width="624" height="624" style="background:#1b1b1f;font-family:sans-serif"><rect x="0" y="536" width="624" height="80" fill="#26262c"/><text x="6" y="552" fill="#ccc" font-size="13">south spawn street</text><rect x="0" y="408" width="624" height="128" fill="#222228"/><text x="6" y="424" fill="#ccc" font-size="13">south yard</text><rect x="0" y="216" width="624" height="192" fill="#2a2a30"/><text x="6" y="232" fill="#ccc" font-size="13">mid</text><rect x="0" y="88" width="624" height="128" fill="#222228"/><text x="6" y="104" fill="#ccc" font-size="13">north yard</text><rect x="0" y="8" width="624" height="80" fill="#26262c"/><text x="6" y="24" fill="#ccc" font-size="13">north spawn street</text><line x1="160" y1="8" x2="160" y2="616" stroke="#333" stroke-dasharray="4 4"/><line x1="464" y1="8" x2="464" y2="616" stroke="#333" stroke-dasharray="4 4"/><rect x="6" y="4" width="612" height="4" fill="#555" stroke="none" stroke-width="1"/><rect x="6" y="616" width="612" height="4" fill="#555" stroke="none" stroke-width="1"/><rect x="616" y="4" width="4" height="616" fill="#555" stroke="none" stroke-width="1"/><rect x="4" y="4" width="4" height="616" fill="#555" stroke="none" stroke-width="1"/><rect x="272" y="280" width="80" height="64" fill="#8b3a3a" stroke="none" stroke-width="1"/><rect x="292" y="510.4" width="40" height="19.19999999999999" fill="#3a6ea5" stroke="none" stroke-width="1"/><rect x="292" y="94.4" width="40" height="19.19999999999999" fill="#3a6ea5" stroke="none" stroke-width="1"/><rect x="88.12406580755612" y="489.9207267914801" width="31.751868384887757" height="44.158546417039815" fill="#3a6ea5" stroke="none" stroke-width="1"/><rect x="504.1240658075561" y="89.92072679148009" width="31.751868384887757" height="44.158546417039815" fill="#3a6ea5" stroke="none" stroke-width="1"/><rect x="134.4" y="590.4" width="3.1999999999999886" height="3.2000000000000455" fill="#ffd166" stroke="none" stroke-width="1"/><rect x="486.4" y="30.399999999999977" width="3.1999999999999886" height="3.2000000000000455" fill="#ffd166" stroke="none" stroke-width="1"/><rect x="446.4" y="550.4" width="3.1999999999999886" height="3.1999999999999886" fill="#ffd166" stroke="none" stroke-width="1"/><rect x="174.4" y="70.4" width="3.1999999999999886" height="3.1999999999999886" fill="#ffd166" stroke="none" stroke-width="1"/><rect x="198.4" y="406.4" width="3.1999999999999886" height="3.1999999999999886" fill="#ffd166" stroke="none" stroke-width="1"/><rect x="422.4" y="214.4" width="3.1999999999999886" height="3.1999999999999886" fill="#ffd166" stroke="none" stroke-width="1"/><rect x="57.84" y="599.44" width="4.319999999999993" height="4.32000000000005" fill="#2d6a4f" stroke="none" stroke-width="1"/><rect x="561.84" y="20.239999999999952" width="4.319999999999993" height="4.32000000000005" fill="#2d6a4f" stroke="none" stroke-width="1"/><rect x="25.360000000000014" y="549.36" width="5.279999999999973" height="5.279999999999973" fill="#2d6a4f" stroke="none" stroke-width="1"/><rect x="593.36" y="69.36000000000001" width="5.279999999999973" height="5.279999999999973" fill="#2d6a4f" stroke="none" stroke-width="1"/><rect x="25.839999999999975" y="405.84000000000003" width="4.32000000000005" height="4.319999999999993" fill="#2d6a4f" stroke="none" stroke-width="1"/><rect x="593.8399999999999" y="213.84" width="4.32000000000005" height="4.319999999999993" fill="#2d6a4f" stroke="none" stroke-width="1"/><rect x="25.600000000000023" y="261.6" width="4.7999999999999545" height="4.799999999999997" fill="#2d6a4f" stroke="none" stroke-width="1"/><rect x="593.6" y="357.6" width="4.7999999999999545" height="4.799999999999997" fill="#2d6a4f" stroke="none" stroke-width="1"/><rect x="593.12" y="501.12" width="5.759999999999991" height="5.759999999999991" fill="#2d6a4f" stroke="none" stroke-width="1"/><rect x="25.120000000000005" y="117.12" width="5.759999999999991" height="5.759999999999991" fill="#2d6a4f" stroke="none" stroke-width="1"/><rect x="356.4808132325432" y="462.3546914747417" width="23.649788887954017" height="19.47974998277988" fill="#e9c46a" stroke="none" stroke-width="1"/><rect x="346.03529923951277" y="461.5424952056896" width="13.664341545475239" height="11.552929441589583" fill="#e9c46a" stroke="none" stroke-width="1"/><rect x="243.8693978795028" y="142.16555854247844" width="23.649788887954017" height="19.47974998277988" fill="#e9c46a" stroke="none" stroke-width="1"/><rect x="264.300359215012" y="150.90457535272083" width="13.664341545475239" height="11.552929441589583" fill="#e9c46a" stroke="none" stroke-width="1"/><rect x="342.4881372012002" y="422.4881372012002" width="6.223725597599682" height="6.2237255975996675" fill="#b5651d" stroke="none" stroke-width="1"/><rect x="275.28813720120013" y="195.2881372012002" width="6.223725597599682" height="6.2237255975996675" fill="#b5651d" stroke="none" stroke-width="1"/><rect x="349.74033455213754" y="418.1403345521376" width="6.919330895724912" height="6.919330895724897" fill="#b5651d" stroke="none" stroke-width="1"/><rect x="267.34033455213756" y="198.94033455213756" width="6.919330895724912" height="6.919330895724897" fill="#b5651d" stroke="none" stroke-width="1"/><rect x="420.28008193126146" y="436.28008193126146" width="7.439836137477101" height="7.439836137477116" fill="#b5651d" stroke="none" stroke-width="1"/><rect x="196.28008193126146" y="180.28008193126144" width="7.439836137477101" height="7.439836137477116" fill="#b5651d" stroke="none" stroke-width="1"/><rect x="428.70962878371836" y="433.9096287837184" width="5.7807424325632155" height="5.7807424325632155" fill="#b5651d" stroke="none" stroke-width="1"/><rect x="189.5096287837184" y="184.30962878371838" width="5.7807424325632155" height="5.780742432563244" fill="#b5651d" stroke="none" stroke-width="1"/><rect x="364.33045784687556" y="363.53045784687555" width="7.339084306248893" height="7.339084306248893" fill="#b5651d" stroke="none" stroke-width="1"/><rect x="252.33045784687556" y="253.13045784687554" width="7.339084306248893" height="7.339084306248893" fill="#b5651d" stroke="none" stroke-width="1"/><rect x="319.89773832312244" y="348.69773832312245" width="6.604523353755074" height="6.60452335375507" fill="#b5651d" stroke="none" stroke-width="1"/><rect x="297.49773832312246" y="268.69773832312245" width="6.604523353755071" height="6.60452335375507" fill="#b5651d" stroke="none" stroke-width="1"/><rect x="327.0800819312615" y="349.48008193126145" width="7.4398361374771085" height="7.439836137477101" fill="#b5651d" stroke="none" stroke-width="1"/><rect x="289.48008193126145" y="267.0800819312615" width="7.4398361374771085" height="7.439836137477101" fill="#b5651d" stroke="none" stroke-width="1"/><rect x="150.12" y="304.96" width="20.399999999999977" height="14.080000000000002" fill="#e9c46a" stroke="none" stroke-width="1"/><rect x="138.32" y="307.76" width="11.680000000000007" height="8.48" fill="#e9c46a" stroke="none" stroke-width="1"/><rect x="453.48" y="304.96" width="20.399999999999977" height="14.080000000000004" fill="#e9c46a" stroke="none" stroke-width="1"/><rect x="474" y="307.76" width="11.680000000000007" height="8.480000000000002" fill="#e9c46a" stroke="none" stroke-width="1"/><rect x="154.7096287837184" y="360.3096287837184" width="5.7807424325632155" height="5.78074243256323" fill="#b5651d" stroke="none" stroke-width="1"/><rect x="463.5096287837184" y="257.9096287837184" width="5.7807424325632155" height="5.78074243256323" fill="#b5651d" stroke="none" stroke-width="1"/><rect x="160.26687420734874" y="351.4668742073487" width="7.46625158530253" height="7.4662515853025155" fill="#b5651d" stroke="none" stroke-width="1"/><rect x="456.26687420734874" y="265.06687420734875" width="7.46625158530253" height="7.4662515853025155" fill="#b5651d" stroke="none" stroke-width="1"/><rect x="59.884595956255" y="427.94604169001514" width="24.73213730965159" height="23.71008624027651" fill="#e9c46a" stroke="none" stroke-width="1"/><rect x="52.38184633380854" y="442.89479358588613" width="14.42051083538422" height="13.90301662304239" fill="#e9c46a" stroke="none" stroke-width="1"/><rect x="539.3832667340935" y="172.34387206970837" width="24.73213730965159" height="23.71008624027651" fill="#e9c46a" stroke="none" stroke-width="1"/><rect x="557.1976428308072" y="167.20218979107148" width="14.42051083538422" height="13.90301662304239" fill="#e9c46a" stroke="none" stroke-width="1"/><rect x="537.3403345521376" y="399.74033455213754" width="6.919330895724897" height="6.919330895724897" fill="#b5651d" stroke="none" stroke-width="1"/><rect x="79.74033455213754" y="217.34033455213756" width="6.919330895724897" height="6.919330895724897" fill="#b5651d" stroke="none" stroke-width="1"/><rect x="544.8881372012002" y="396.0881372012002" width="6.223725597599696" height="6.2237255975996675" fill="#b5651d" stroke="none" stroke-width="1"/><rect x="72.88813720120015" y="221.68813720120016" width="6.223725597599696" height="6.2237255975996675" fill="#b5651d" stroke="none" stroke-width="1"/><rect x="215.6" y="528.4" width="8" height="8" fill="#a07850" stroke="#1b1b1f" stroke-width="1"/><rect x="400.4" y="87.6" width="8" height="8" fill="#a07850" stroke="#1b1b1f" stroke-width="1"/><rect x="224.4" y="528.4" width="8" height="8" fill="#a07850" stroke="#1b1b1f" stroke-width="1"/><rect x="391.6" y="87.6" width="8" height="8" fill="#a07850" stroke="#1b1b1f" stroke-width="1"/><rect x="215.6" y="519.6" width="8" height="8" fill="#a07850" stroke="#1b1b1f" stroke-width="1"/><rect x="400.4" y="96.4" width="8" height="8" fill="#a07850" stroke="#1b1b1f" stroke-width="1"/><rect x="224.4" y="519.6" width="8" height="8" fill="#a07850" stroke="#1b1b1f" stroke-width="1"/><rect x="391.6" y="96.4" width="8" height="8" fill="#a07850" stroke="#1b1b1f" stroke-width="1"/><rect x="220" y="524" width="8" height="8" fill="#c8a06a" stroke="#1b1b1f" stroke-width="1"/><rect x="396" y="92" width="8" height="8" fill="#c8a06a" stroke="#1b1b1f" stroke-width="1"/><rect x="391.6" y="528.4" width="8" height="8" fill="#a07850" stroke="#1b1b1f" stroke-width="1"/><rect x="224.4" y="87.6" width="8" height="8" fill="#a07850" stroke="#1b1b1f" stroke-width="1"/><rect x="400.4" y="528.4" width="8" height="8" fill="#a07850" stroke="#1b1b1f" stroke-width="1"/><rect x="215.6" y="87.6" width="8" height="8" fill="#a07850" stroke="#1b1b1f" stroke-width="1"/><rect x="391.6" y="519.6" width="8" height="8" fill="#a07850" stroke="#1b1b1f" stroke-width="1"/><rect x="224.4" y="96.4" width="8" height="8" fill="#a07850" stroke="#1b1b1f" stroke-width="1"/><rect x="400.4" y="519.6" width="8" height="8" fill="#a07850" stroke="#1b1b1f" stroke-width="1"/><rect x="215.6" y="96.4" width="8" height="8" fill="#a07850" stroke="#1b1b1f" stroke-width="1"/><rect x="396" y="524" width="8" height="8" fill="#c8a06a" stroke="#1b1b1f" stroke-width="1"/><rect x="220" y="92" width="8" height="8" fill="#c8a06a" stroke="#1b1b1f" stroke-width="1"/><rect x="180.6" y="524" width="8" height="8" fill="#a07850" stroke="#1b1b1f" stroke-width="1"/><rect x="435.4" y="92" width="8" height="8" fill="#a07850" stroke="#1b1b1f" stroke-width="1"/><rect x="190.6" y="524" width="8" height="8" fill="#a07850" stroke="#1b1b1f" stroke-width="1"/><rect x="425.4" y="92" width="8" height="8" fill="#a07850" stroke="#1b1b1f" stroke-width="1"/><rect x="185.6" y="524" width="8" height="8" fill="#c8a06a" stroke="#1b1b1f" stroke-width="1"/><rect x="430.4" y="92" width="8" height="8" fill="#c8a06a" stroke="#1b1b1f" stroke-width="1"/><rect x="425.4" y="524" width="8" height="8" fill="#a07850" stroke="#1b1b1f" stroke-width="1"/><rect x="190.6" y="92" width="8" height="8" fill="#a07850" stroke="#1b1b1f" stroke-width="1"/><rect x="435.4" y="524" width="8" height="8" fill="#a07850" stroke="#1b1b1f" stroke-width="1"/><rect x="180.6" y="92" width="8" height="8" fill="#a07850" stroke="#1b1b1f" stroke-width="1"/><rect x="430.4" y="524" width="8" height="8" fill="#c8a06a" stroke="#1b1b1f" stroke-width="1"/><rect x="185.6" y="92" width="8" height="8" fill="#c8a06a" stroke="#1b1b1f" stroke-width="1"/><rect x="242" y="444" width="8" height="8" fill="#a07850" stroke="#1b1b1f" stroke-width="1"/><rect x="374" y="172" width="8" height="8" fill="#a07850" stroke="#1b1b1f" stroke-width="1"/><rect x="252" y="444" width="8" height="8" fill="#a07850" stroke="#1b1b1f" stroke-width="1"/><rect x="364" y="172" width="8" height="8" fill="#a07850" stroke="#1b1b1f" stroke-width="1"/><rect x="262" y="444" width="8" height="8" fill="#a07850" stroke="#1b1b1f" stroke-width="1"/><rect x="354" y="172" width="8" height="8" fill="#a07850" stroke="#1b1b1f" stroke-width="1"/><rect x="247" y="444" width="8" height="8" fill="#c8a06a" stroke="#1b1b1f" stroke-width="1"/><rect x="369" y="172" width="8" height="8" fill="#c8a06a" stroke="#1b1b1f" stroke-width="1"/><rect x="257" y="444" width="8" height="8" fill="#c8a06a" stroke="#1b1b1f" stroke-width="1"/><rect x="359" y="172" width="8" height="8" fill="#c8a06a" stroke="#1b1b1f" stroke-width="1"/><rect x="195" y="476" width="8" height="8" fill="#a07850" stroke="#1b1b1f" stroke-width="1"/><rect x="421" y="140" width="8" height="8" fill="#a07850" stroke="#1b1b1f" stroke-width="1"/><rect x="205" y="476" width="8" height="8" fill="#a07850" stroke="#1b1b1f" stroke-width="1"/><rect x="411" y="140" width="8" height="8" fill="#a07850" stroke="#1b1b1f" stroke-width="1"/><rect x="200" y="476" width="8" height="8" fill="#c8a06a" stroke="#1b1b1f" stroke-width="1"/><rect x="416" y="140" width="8" height="8" fill="#c8a06a" stroke="#1b1b1f" stroke-width="1"/><rect x="211.2" y="372.8" width="8" height="8" fill="#a07850" stroke="#1b1b1f" stroke-width="1"/><rect x="404.8" y="243.2" width="8" height="8" fill="#a07850" stroke="#1b1b1f" stroke-width="1"/><rect x="228.8" y="372.8" width="8" height="8" fill="#a07850" stroke="#1b1b1f" stroke-width="1"/><rect x="387.2" y="243.2" width="8" height="8" fill="#a07850" stroke="#1b1b1f" stroke-width="1"/><rect x="211.2" y="355.2" width="8" height="8" fill="#a07850" stroke="#1b1b1f" stroke-width="1"/><rect x="404.8" y="260.8" width="8" height="8" fill="#a07850" stroke="#1b1b1f" stroke-width="1"/><rect x="228.8" y="355.2" width="8" height="8" fill="#a07850" stroke="#1b1b1f" stroke-width="1"/><rect x="387.2" y="260.8" width="8" height="8" fill="#a07850" stroke="#1b1b1f" stroke-width="1"/><rect x="220" y="368" width="8" height="8" fill="#c8a06a" stroke="#1b1b1f" stroke-width="1"/><rect x="396" y="248" width="8" height="8" fill="#c8a06a" stroke="#1b1b1f" stroke-width="1"/><rect x="220" y="360" width="8" height="8" fill="#c8a06a" stroke="#1b1b1f" stroke-width="1"/><rect x="396" y="256" width="8" height="8" fill="#c8a06a" stroke="#1b1b1f" stroke-width="1"/><rect x="220" y="364" width="8" height="8" fill="#c8a06a" stroke="#1b1b1f" stroke-width="1"/><rect x="396" y="252" width="8" height="8" fill="#c8a06a" stroke="#1b1b1f" stroke-width="1"/><rect x="371.2" y="371.2" width="9.599999999999994" height="9.599999999999994" fill="#a07850" stroke="#1b1b1f" stroke-width="1"/><rect x="243.2" y="243.2" width="9.599999999999994" height="9.599999999999994" fill="#a07850" stroke="#1b1b1f" stroke-width="1"/><rect x="381.6" y="365.6" width="8" height="8" fill="#a07850" stroke="#1b1b1f" stroke-width="1"/><rect x="234.4" y="250.4" width="8" height="8" fill="#a07850" stroke="#1b1b1f" stroke-width="1"/><rect x="283" y="350.4" width="8" height="8" fill="#a07850" stroke="#1b1b1f" stroke-width="1"/><rect x="333" y="265.6" width="8" height="8" fill="#a07850" stroke="#1b1b1f" stroke-width="1"/><rect x="293" y="350.4" width="8" height="8" fill="#a07850" stroke="#1b1b1f" stroke-width="1"/><rect x="323" y="265.6" width="8" height="8" fill="#a07850" stroke="#1b1b1f" stroke-width="1"/><rect x="288" y="350.4" width="8" height="8" fill="#c8a06a" stroke="#1b1b1f" stroke-width="1"/><rect x="328" y="265.6" width="8" height="8" fill="#c8a06a" stroke="#1b1b1f" stroke-width="1"/><rect x="79.6" y="376.4" width="8" height="8" fill="#a07850" stroke="#1b1b1f" stroke-width="1"/><rect x="536.4" y="239.6" width="8" height="8" fill="#a07850" stroke="#1b1b1f" stroke-width="1"/><rect x="88.4" y="376.4" width="8" height="8" fill="#a07850" stroke="#1b1b1f" stroke-width="1"/><rect x="527.6" y="239.6" width="8" height="8" fill="#a07850" stroke="#1b1b1f" stroke-width="1"/><rect x="79.6" y="367.6" width="8" height="8" fill="#a07850" stroke="#1b1b1f" stroke-width="1"/><rect x="536.4" y="248.4" width="8" height="8" fill="#a07850" stroke="#1b1b1f" stroke-width="1"/><rect x="88.4" y="367.6" width="8" height="8" fill="#a07850" stroke="#1b1b1f" stroke-width="1"/><rect x="527.6" y="248.4" width="8" height="8" fill="#a07850" stroke="#1b1b1f" stroke-width="1"/><rect x="84" y="372" width="8" height="8" fill="#c8a06a" stroke="#1b1b1f" stroke-width="1"/><rect x="532" y="244" width="8" height="8" fill="#c8a06a" stroke="#1b1b1f" stroke-width="1"/><rect x="510.4" y="384" width="9.600000000000023" height="9.599999999999994" fill="#a07850" stroke="#1b1b1f" stroke-width="1"/><rect x="104" y="230.4" width="9.600000000000023" height="9.599999999999994" fill="#a07850" stroke="#1b1b1f" stroke-width="1"/><rect x="520" y="384" width="9.600000000000023" height="9.599999999999994" fill="#a07850" stroke="#1b1b1f" stroke-width="1"/><rect x="94.39999999999998" y="230.4" width="9.600000000000023" height="9.599999999999994" fill="#a07850" stroke="#1b1b1f" stroke-width="1"/><rect x="510.4" y="374.4" width="9.600000000000023" height="9.599999999999994" fill="#a07850" stroke="#1b1b1f" stroke-width="1"/><rect x="104" y="240" width="9.600000000000023" height="9.599999999999994" fill="#a07850" stroke="#1b1b1f" stroke-width="1"/><rect x="520" y="374.4" width="9.600000000000023" height="9.599999999999994" fill="#a07850" stroke="#1b1b1f" stroke-width="1"/><rect x="94.39999999999998" y="240" width="9.600000000000023" height="9.599999999999994" fill="#a07850" stroke="#1b1b1f" stroke-width="1"/><rect x="510.4" y="379.2" width="9.600000000000023" height="9.599999999999994" fill="#c8a06a" stroke="#1b1b1f" stroke-width="1"/><rect x="104" y="235.2" width="9.600000000000023" height="9.599999999999994" fill="#c8a06a" stroke="#1b1b1f" stroke-width="1"/><rect x="520" y="379.2" width="9.600000000000023" height="9.599999999999994" fill="#c8a06a" stroke="#1b1b1f" stroke-width="1"/><rect x="94.39999999999998" y="235.2" width="9.600000000000023" height="9.599999999999994" fill="#c8a06a" stroke="#1b1b1f" stroke-width="1"/><rect x="515.2" y="379.2" width="9.600000000000023" height="9.599999999999994" fill="#c8a06a" stroke="#1b1b1f" stroke-width="1"/><rect x="99.19999999999999" y="235.2" width="9.600000000000023" height="9.599999999999994" fill="#c8a06a" stroke="#1b1b1f" stroke-width="1"/><rect x="483" y="512" width="8" height="8" fill="#a07850" stroke="#1b1b1f" stroke-width="1"/><rect x="133" y="104" width="8" height="8" fill="#a07850" stroke="#1b1b1f" stroke-width="1"/><rect x="493" y="512" width="8" height="8" fill="#a07850" stroke="#1b1b1f" stroke-width="1"/><rect x="123" y="104" width="8" height="8" fill="#a07850" stroke="#1b1b1f" stroke-width="1"/><rect x="488" y="512" width="8" height="8" fill="#c8a06a" stroke="#1b1b1f" stroke-width="1"/><rect x="128" y="104" width="8" height="8" fill="#c8a06a" stroke="#1b1b1f" stroke-width="1"/><rect x="276.0346130280753" y="605.8575809611156" width="7.930773943849445" height="7.484838077768927" fill="#777" stroke="none" stroke-width="1"/><rect x="340.0346130280753" y="10.657580961115514" width="7.930773943849445" height="7.484838077768927" fill="#777" stroke="none" stroke-width="1"/><rect x="284.30328925939494" y="605.6582269657588" width="7.393421481210154" height="7.88354606848236" fill="#777" stroke="none" stroke-width="1"/><rect x="332.30328925939494" y="10.458226965758797" width="7.393421481210154" height="7.88354606848236" fill="#777" stroke="none" stroke-width="1"/><rect x="392.89412572038515" y="605.5709283599092" width="7.81174855922967" height="8.058143280181639" fill="#777" stroke="none" stroke-width="1"/><rect x="223.29412572038518" y="10.370928359909158" width="7.81174855922967" height="8.058143280181639" fill="#777" stroke="none" stroke-width="1"/><rect x="159.28" y="455.28" width="1.4399999999999977" height="33.44" fill="#7fd1ff" stroke="none" stroke-width="1"/><rect x="463.28" y="135.28" width="1.4399999999999977" height="33.44" fill="#7fd1ff" stroke="none" stroke-width="1"/><rect x="159.28" y="423.28" width="1.4399999999999977" height="33.44" fill="#7fd1ff" stroke="none" stroke-width="1"/><rect x="463.28" y="167.28" width="1.4399999999999977" height="33.44" fill="#7fd1ff" stroke="none" stroke-width="1"/><rect x="159.04" y="391.28" width="1.920000000000016" height="33.44" fill="#7fd1ff" stroke="none" stroke-width="1"/><rect x="463.03999999999996" y="199.28" width="1.920000000000016" height="33.44" fill="#7fd1ff" stroke="none" stroke-width="1"/><rect x="463.28" y="455.28" width="1.4399999999999977" height="33.44" fill="#7fd1ff" stroke="none" stroke-width="1"/><rect x="159.28" y="135.28" width="1.4399999999999977" height="33.44" fill="#7fd1ff" stroke="none" stroke-width="1"/><rect x="463.28" y="423.28" width="1.4399999999999977" height="33.44" fill="#7fd1ff" stroke="none" stroke-width="1"/><rect x="159.28" y="167.28" width="1.4399999999999977" height="33.44" fill="#7fd1ff" stroke="none" stroke-width="1"/><rect x="463.03999999999996" y="391.28" width="1.920000000000016" height="33.44" fill="#7fd1ff" stroke="none" stroke-width="1"/><rect x="159.04" y="199.28" width="1.920000000000016" height="33.44" fill="#7fd1ff" stroke="none" stroke-width="1"/><rect x="407.25526001034916" y="473.56469852318935" width="7.889479979301655" height="8.07060295362129" fill="#777" stroke="none" stroke-width="1"/><rect x="208.85526001034918" y="142.36469852318936" width="7.889479979301655" height="8.07060295362129" fill="#777" stroke="none" stroke-width="1"/><rect x="335.2346130280753" y="347.4575809611155" width="7.930773943849445" height="7.484838077768941" fill="#777" stroke="none" stroke-width="1"/><rect x="280.8346130280753" y="269.05758096111555" width="7.930773943849445" height="7.484838077768927" fill="#777" stroke="none" stroke-width="1"/><rect x="343.89869470002327" y="355.5089014602194" width="6.602610599953451" height="7.382197079561166" fill="#777" stroke="none" stroke-width="1"/><rect x="273.4986947000233" y="261.1089014602194" width="6.602610599953451" height="7.382197079561166" fill="#777" stroke="none" stroke-width="1"/><rect x="40.799999999999955" y="591.2" width="11.200000000000045" height="11.200000000000045" fill="#4f9d69" stroke="none" stroke-width="1"/><rect x="572" y="21.599999999999966" width="11.200000000000045" height="11.200000000000045" fill="#4f9d69" stroke="none" stroke-width="1"/><rect x="68" y="598.4" width="11.199999999999989" height="11.200000000000045" fill="#4f9d69" stroke="none" stroke-width="1"/><rect x="544.8" y="14.399999999999977" width="11.199999999999989" height="11.200000000000045" fill="#4f9d69" stroke="none" stroke-width="1"/><rect x="143.20000000000002" y="423.2" width="11.199999999999989" height="11.199999999999989" fill="#4f9d69" stroke="none" stroke-width="1"/><rect x="469.6" y="189.60000000000002" width="11.199999999999989" height="11.199999999999989" fill="#4f9d69" stroke="none" stroke-width="1"/><rect x="447.20000000000005" y="451.20000000000005" width="11.199999999999989" height="11.199999999999989" fill="#4f9d69" stroke="none" stroke-width="1"/><rect x="165.6" y="161.6" width="11.199999999999989" height="11.199999999999989" fill="#4f9d69" stroke="none" stroke-width="1"/><rect x="258.4" y="348.8" width="11.200000000000003" height="11.200000000000003" fill="#4f9d69" stroke="none" stroke-width="1"/><rect x="354.4" y="264" width="11.200000000000003" height="11.200000000000003" fill="#4f9d69" stroke="none" stroke-width="1"/><rect x="32" y="556.8" width="11.200000000000045" height="11.199999999999989" fill="#4f9d69" stroke="none" stroke-width="1"/><rect x="580.8" y="56" width="11.200000000000045" height="11.199999999999989" fill="#4f9d69" stroke="none" stroke-width="1"/><rect x="13.599999999999966" y="532" width="11.200000000000045" height="11.199999999999989" fill="#4f9d69" stroke="none" stroke-width="1"/><rect x="599.2" y="80.80000000000001" width="11.200000000000045" height="11.199999999999989" fill="#4f9d69" stroke="none" stroke-width="1"/><rect x="29.599999999999966" y="392" width="11.200000000000045" height="11.199999999999989" fill="#4f9d69" stroke="none" stroke-width="1"/><rect x="583.2" y="220.8" width="11.200000000000045" height="11.199999999999989" fill="#4f9d69" stroke="none" stroke-width="1"/><rect x="16" y="245.60000000000002" width="11.200000000000045" height="11.199999999999996" fill="#4f9d69" stroke="none" stroke-width="1"/><rect x="596.8" y="367.2" width="11.200000000000045" height="11.199999999999996" fill="#4f9d69" stroke="none" stroke-width="1"/><rect x="579.2" y="511.20000000000005" width="11.200000000000045" height="11.199999999999989" fill="#4f9d69" stroke="none" stroke-width="1"/><rect x="33.599999999999966" y="101.6" width="11.200000000000045" height="11.199999999999989" fill="#4f9d69" stroke="none" stroke-width="1"/><rect x="598.4" y="484" width="11.200000000000045" height="11.199999999999989" fill="#4f9d69" stroke="none" stroke-width="1"/><rect x="14.399999999999977" y="128.8" width="11.200000000000045" height="11.199999999999989" fill="#4f9d69" stroke="none" stroke-width="1"/><rect x="584.8" y="325.6" width="11.200000000000045" height="11.199999999999998" fill="#4f9d69" stroke="none" stroke-width="1"/><rect x="28" y="287.2" width="11.200000000000045" height="11.199999999999998" fill="#4f9d69" stroke="none" stroke-width="1"/><rect x="351.6" y="490.8" width="4" height="4" fill="#ff7f3f" stroke="none" stroke-width="1"/><rect x="268.4" y="129.2" width="4" height="4" fill="#ff7f3f" stroke="none" stroke-width="1"/><rect x="385.2" y="485.2" width="4" height="4" fill="#ff7f3f" stroke="none" stroke-width="1"/><rect x="234.8" y="134.8" width="4" height="4" fill="#ff7f3f" stroke="none" stroke-width="1"/><rect x="380.4" y="450.8" width="4" height="4" fill="#ff7f3f" stroke="none" stroke-width="1"/><rect x="239.6" y="169.2" width="4" height="4" fill="#ff7f3f" stroke="none" stroke-width="1"/><rect x="169.2" y="384.4" width="4" height="4" fill="#ff7f3f" stroke="none" stroke-width="1"/><rect x="450.8" y="235.6" width="4" height="4" fill="#ff7f3f" stroke="none" stroke-width="1"/><rect x="174.8" y="390" width="4" height="4" fill="#ff7f3f" stroke="none" stroke-width="1"/><rect x="445.2" y="230" width="4" height="4" fill="#ff7f3f" stroke="none" stroke-width="1"/><rect x="542" y="558" width="4" height="4" fill="#ff7f3f" stroke="none" stroke-width="1"/><rect x="78" y="62" width="4" height="4" fill="#ff7f3f" stroke="none" stroke-width="1"/><rect x="548.4" y="551.6" width="4" height="4" fill="#ff7f3f" stroke="none" stroke-width="1"/><rect x="71.6" y="68.4" width="4" height="4" fill="#ff7f3f" stroke="none" stroke-width="1"/><rect x="554.8" y="545.2" width="4" height="4" fill="#ff7f3f" stroke="none" stroke-width="1"/><rect x="65.19999999999999" y="74.80000000000001" width="4" height="4" fill="#ff7f3f" stroke="none" stroke-width="1"/><rect x="561.2" y="538.8" width="4" height="4" fill="#ff7f3f" stroke="none" stroke-width="1"/><rect x="58.80000000000001" y="81.19999999999999" width="4" height="4" fill="#ff7f3f" stroke="none" stroke-width="1"/><circle cx="184" cy="576" r="4.8" fill="#ff5d5d" stroke="#fff"/><text x="184" y="580" fill="#000" font-size="10" text-anchor="middle">0</text><circle cx="224" cy="584" r="4.8" fill="#ff5d5d" stroke="#fff"/><text x="224" y="588" fill="#000" font-size="10" text-anchor="middle">1</text><circle cx="312" cy="584" r="4.8" fill="#ff5d5d" stroke="#fff"/><text x="312" y="588" fill="#000" font-size="10" text-anchor="middle">2</text><circle cx="400" cy="584" r="4.8" fill="#ff5d5d" stroke="#fff"/><text x="400" y="588" fill="#000" font-size="10" text-anchor="middle">3</text><circle cx="440" cy="576" r="4.8" fill="#ff5d5d" stroke="#fff"/><text x="440" y="580" fill="#000" font-size="10" text-anchor="middle">4</text><circle cx="440" cy="48" r="4.8" fill="#5dd1ff" stroke="#fff"/><text x="440" y="52" fill="#000" font-size="10" text-anchor="middle">5</text><circle cx="400" cy="40" r="4.8" fill="#5dd1ff" stroke="#fff"/><text x="400" y="44" fill="#000" font-size="10" text-anchor="middle">6</text><circle cx="312" cy="40" r="4.8" fill="#5dd1ff" stroke="#fff"/><text x="312" y="44" fill="#000" font-size="10" text-anchor="middle">7</text><circle cx="224" cy="40" r="4.8" fill="#5dd1ff" stroke="#fff"/><text x="224" y="44" fill="#000" font-size="10" text-anchor="middle">8</text><circle cx="184" cy="48" r="4.8" fill="#5dd1ff" stroke="#fff"/><text x="184" y="52" fill="#000" font-size="10" text-anchor="middle">9</text><text x="616" y="616" fill="#aaa" font-size="12" text-anchor="end">+X east →  · +Z north ↑ · red = south team, blue = north team</text></svg>